<svg width="21" height="21" viewBox="0 0 21 21" fill="none" xmlns="http://www.w3.org/2000/svg">
<path d="M14.4375 10.5C14.4375 11.4105 14.3883 12.2883 14.3021 13.125H6.69785C6.61172 12.2883 6.52559 11.4105 6.52559 10.5C6.52559 9.58945 6.61172 8.71172 6.69785 7.875H14.3021C14.3883 8.71172 14.4375 9.58945 14.4375 10.5ZM20.6678 7.875C20.8852 8.71582 21 9.59355 21 10.5C21 11.4064 20.8852 12.2842 20.6678 13.125H15.6187C15.7049 12.2801 15.75 11.3654 15.75 10.5C15.75 9.59766 15.7049 8.71992 15.6187 7.875H20.6678ZM20.2371 6.5625H15.4506C15.0404 3.94324 14.2283 1.74809 13.1824 0.346254C16.398 1.19314 19.0066 3.52488 20.2371 6.5625ZM14.1217 6.5625H6.87832C7.12852 5.06953 7.51406 3.74801 7.98574 2.68037C8.41641 1.71199 8.89629 1.00939 9.35977 0.566426C9.81914 0.130348 10.2006 0 10.5 0C10.7994 0 11.1809 0.130348 11.6402 0.566426C12.1037 1.00939 12.5836 1.71199 13.0143 2.68037C13.4859 3.74801 13.8715 5.06953 14.1217 6.5625ZM0.763301 6.5625C1.99295 3.52488 4.60195 1.19314 7.81758 0.346254C6.77168 1.74809 5.95957 3.94324 5.54941 6.5625H0.763301ZM5.38125 7.875C5.29512 8.71992 5.21309 9.59766 5.21309 10.5C5.21309 11.3654 5.29512 12.2801 5.38125 13.125H0.330791C0.114844 12.2842 0 11.4064 0 10.5C0 9.59355 0.114844 8.71582 0.330791 7.875H5.38125ZM7.98574 18.3176C7.51406 17.2512 7.12852 15.9305 6.87832 14.4375H14.1217C13.8715 15.9305 13.4859 17.2512 13.0143 18.3176C12.5836 19.2896 12.1037 19.991 11.6402 20.434C11.1809 20.8687 10.7994 21 10.4631 21C10.2006 21 9.81914 20.8687 9.35977 20.434C8.89629 19.991 8.41641 19.2896 7.98574 18.3176ZM7.81758 20.6555C4.60195 19.8064 1.99295 17.4768 0.763301 14.4375H5.54941C5.95957 17.0584 6.77168 19.2527 7.81758 20.6555ZM13.1824 20.6555C14.2283 19.2527 15.0404 17.0584 15.4506 14.4375H20.2371C19.0066 17.4768 16.398 19.8064 13.1824 20.6555Z" fill="#5D5FEF"/>
</svg>
