<?xml version="1.0" encoding="UTF-8" standalone="no"?>
<!-- Created with Inkscape (http://www.inkscape.org/) -->

<svg
   width="300"
   height="210"
   viewBox="0 0 79.375009 55.5625"
   version="1.1"
   id="svg5"
   xml:space="preserve"
   inkscape:version="1.2.1 (9c6d41e410, 2022-07-14)"
   sodipodi:docname="registration_img_t3.svg"
   xmlns:inkscape="http://www.inkscape.org/namespaces/inkscape"
   xmlns:sodipodi="http://sodipodi.sourceforge.net/DTD/sodipodi-0.dtd"
   xmlns="http://www.w3.org/2000/svg"
   xmlns:svg="http://www.w3.org/2000/svg"><sodipodi:namedview
     id="namedview7"
     pagecolor="#ffffff"
     bordercolor="#111111"
     borderopacity="1"
     inkscape:showpageshadow="0"
     inkscape:pageopacity="0"
     inkscape:pagecheckerboard="1"
     inkscape:deskcolor="#d1d1d1"
     inkscape:document-units="mm"
     showgrid="false"
     inkscape:zoom="2.0510461"
     inkscape:cx="270.10606"
     inkscape:cy="118.23235"
     inkscape:window-width="1920"
     inkscape:window-height="1001"
     inkscape:window-x="-9"
     inkscape:window-y="-9"
     inkscape:window-maximized="1"
     inkscape:current-layer="layer1" /><defs
     id="defs2" /><g
     inkscape:label="Слой 1"
     inkscape:groupmode="layer"
     id="layer1"><g
       style="fill:none"
       id="g96"
       transform="matrix(0.26458333,0,0,0.26458333,0.54742103,9.7019917)"><path
         d="m 186.426,69.7706 -6.419,-3.4339 0.48,-0.2572 6.42,3.4343 z"
         fill="#cbcbcb"
         id="path9" /><path
         d="m 180.827,69.7706 -0.48,-0.2568 6.419,-3.4343 0.48,0.2572 z"
         fill="#cbcbcb"
         id="path11" /><path
         d="m 133.049,43.1525 -0.31,0.6089 1.813,0.9358 0.31,-0.6088 z"
         fill="#cbcbcb"
         id="path13" /><path
         d="m 170.647,63.3244 -3.61,-1.8627 0.31,-0.6089 3.609,1.8627 z m -7.219,-3.7254 -3.61,-1.8629 0.31,-0.6089 3.61,1.8629 z m -7.219,-3.7256 -3.609,-1.8627 0.309,-0.6089 3.61,1.8627 z m -7.219,-3.7254 -3.609,-1.8627 0.309,-0.6089 3.61,1.8627 z m -7.219,-3.7254 -3.609,-1.8627 0.31,-0.6089 3.609,1.8627 z"
         fill="#cbcbcb"
         id="path15" /><path
         d="m 174.566,64.5783 -0.31,0.6088 1.814,0.9359 0.309,-0.6088 z"
         fill="#cbcbcb"
         id="path17" /><path
         d="m 37.6434,88.9458 c 0,0.2137 -0.0069,0.4255 -0.0207,0.6356 -0.0771,1.2117 -0.381,2.3978 -0.8958,3.4957 -0.004,0.0094 -0.0087,0.0181 -0.0126,0.0269 -0.024,0.0509 -0.0486,0.1018 -0.0739,0.152 -0.1531,0.3105 -0.3229,0.6124 -0.5088,0.9042 -0.8488,1.3398 -2.0122,2.4484 -3.3875,3.2278 -1.3753,0.7794 -2.92,1.2057 -4.4976,1.2411 l 0.0951,5.5089 1.2404,-0.658 0.2214,0.424 -1.4525,0.77 0.1776,10.231 0.002,0.136 -0.9591,0.215 0.002,-0.137 0.302,-16.4892 C 26.6055,98.6115 25.3519,98.3392 24.1873,97.8289 23.0228,97.3187 21.9705,96.5805 21.0916,95.6572 21.0311,95.5943 20.9712,95.5293 20.9127,95.465 L 20.906,95.4576 c -0.7323,-0.8043 -1.3246,-1.7273 -1.7518,-2.7301 0.0093,0.0107 0.0193,0.0208 0.0286,0.0315 -0.9656,-2.274 -1.0311,-4.8338 -0.183,-7.1548 0.848,-2.3211 2.5453,-4.2276 4.7441,-5.329 0.0332,-0.0167 0.0672,-0.0328 0.1004,-0.0496 2.175,-1.055 4.6643,-1.2486 6.9743,-0.5424 2.3101,0.7063 4.2724,2.2609 5.4979,4.3556 0.0586,0.0992 0.1151,0.2003 0.1696,0.3021 0.7613,1.4137 1.1591,2.9967 1.1573,4.6049 z"
         fill="#e5e5e5"
         id="path19" /><path
         d="m 36.3487,93.1093 c 6.962,0 12.6059,-5.6839 12.6059,-12.6954 0,-7.0115 -5.6439,-12.6954 -12.6059,-12.6954 -6.962,0 -12.6058,5.6839 -12.6058,12.6954 0,7.0115 5.6438,12.6954 12.6058,12.6954 z"
         fill="#e5e5e5"
         id="path21" /><path
         opacity="0.2"
         d="m 27.041,71.9343 c -1.1759,2.7701 -1.3354,5.8709 -0.4501,8.7485 0.8854,2.8776 2.7578,5.3444 5.2828,6.9596 2.5251,1.6152 5.5381,2.2735 8.5007,1.8574 2.9626,-0.4161 5.6818,-1.8797 7.6716,-4.129 -0.7183,1.6923 -1.7933,3.2072 -3.1507,4.4396 -1.3573,1.2324 -2.9645,2.1529 -4.7101,2.6976 -1.7456,0.5448 -3.588,0.7008 -5.3994,0.4573 C 32.9743,92.7218 31.2371,92.0846 29.6945,91.0978 28.1518,90.111 26.8407,88.7983 25.8518,87.2505 24.8629,85.7027 24.22,83.9569 23.9676,82.134 23.7152,80.3112 23.8593,78.4548 24.39,76.6936 c 0.5307,-1.7611 1.4352,-3.3851 2.651,-4.7593 z"
         fill="#252525"
         id="path23" /><path
         d="m 37.0307,115.781 -1.2875,-0.364 0.0027,-0.139 0.3858,-21.1176 0.0193,-1.053 4e-4,-0.0307 0.0675,-3.6896 0.0976,-5.3475 v -8e-4 l 0.0664,-3.6247 h 0.0355 l 0.0679,3.927 0.0883,5.1113 0.0633,3.6267 v 0.0268 l 0.0027,0.1496 v 7e-4 l 0.1223,7.0698 0.0127,0.702 0.2527,14.612 z"
         fill="#252525"
         id="path25" /><path
         d="m 38.3883,99.4639 -2.0838,1.1051 0.2904,0.555 2.0838,-1.105 z"
         fill="#252525"
         id="path27" /><path
         d="m 199.758,39.3271 c -15.911,-0.9473 -31.87,-0.7003 -47.744,0.7391 -7.651,0.6965 -15.424,1.4488 -22.934,3.1297 -6.049,1.3538 -13.069,3.642 -16.838,8.9716 -0.789,1.0738 -1.321,2.317 -1.554,3.6323 -0.233,1.3154 -0.161,2.6671 0.211,3.9496 0.899,3.0382 3.134,5.5671 5.515,7.5479 5.48,4.5589 12.278,7.2117 18.351,10.8336 11.088,6.6129 21.236,15.5261 27.75,26.8491 2.866,4.982 5.592,11.607 2.401,17.097 -3.127,5.379 -10.107,7.232 -15.799,8.106 -7.134,1.095 -14.483,0.798 -21.648,0.184 -7.854,-0.737 -15.665,-1.889 -23.399,-3.451 -15.1525,-2.93 -30.167,-6.658 -45.5299,-8.353 -7.7031,-0.912 -15.4712,-1.138 -23.2137,-0.676 -6.9925,0.475 -14.0448,1.589 -20.6137,4.128 -5.06189,1.957 -10.45761,4.917 -13.19184,9.855 -2.63568,4.759 -1.6076806,10.247 1.26225,14.638 3.45311,5.283 8.83769,8.904 14.43599,11.55 6.3741,3.013 13.1918,4.966 20.0182,6.626 3.4622,0.843 6.9431,1.604 10.4243,2.362 0.7262,0.158 1.0365,-0.966 0.3077,-1.124 -7.0202,-1.528 -14.0606,-3.061 -20.9065,-5.272 -6.3351,-2.047 -12.8182,-4.668 -18.00604,-8.966 -4.197,-3.476 -8.187478,-8.554 -7.93975,-14.327 0.24972,-5.821 5.09854,-9.884 9.85109,-12.386 5.9392,-3.126 12.6871,-4.648 19.2992,-5.444 7.5711,-0.85 15.2063,-0.954 22.7974,-0.312 15.3267,1.174 30.311,4.69 45.3383,7.757 14.599,2.98 29.653,5.739 44.614,4.974 5.93,-0.303 12.284,-1.158 17.519,-4.173 2.398,-1.38 4.559,-3.326 5.778,-5.859 1.097,-2.41 1.444,-5.098 0.995,-7.711 -0.849,-5.739 -4.233,-11.06 -7.61,-15.6309 -3.702,-4.9579 -7.996,-9.4376 -12.786,-13.3381 -5.256,-4.2602 -10.923,-7.9784 -16.917,-11.0988 -3.178,-1.6853 -6.402,-3.3059 -9.431,-5.2578 -2.904,-1.8716 -5.769,-4.1236 -7.542,-7.1618 -1.534,-2.6279 -1.816,-5.6271 -0.218,-8.2923 1.616,-2.6956 4.4,-4.5757 7.146,-5.9496 6.615,-3.3101 14.305,-4.1961 21.543,-5.1041 15.54,-1.9427 31.201,-2.7291 46.856,-2.3528 3.805,0.0901 7.608,0.2488 11.408,0.4759 0.744,0.0441 0.741,-1.1217 0,-1.1656 z"
         fill="#252525"
         id="path29" /><path
         d="m 189.664,1.96298 2.403,-1.9358685 C 190.2,-0.18034 189.433,0.845145 189.119,1.65682 c -1.458,-0.60997 -3.046,0.18943 -3.046,0.18943 l 4.808,1.75811 C 190.639,2.9518 190.217,2.38242 189.664,1.96298 Z"
         fill="#252525"
         id="path31" /><path
         d="m 178,8.09164 2.404,-1.93587 c -1.867,-0.20745 -2.634,0.81803 -2.948,1.62971 -1.459,-0.60997 -3.047,0.18943 -3.047,0.18943 l 4.809,1.75811 C 178.975,9.08046 178.553,8.51108 178,8.09164 Z"
         fill="#252525"
         id="path33" /><path
         d="m 189.664,17.7952 2.403,-1.9358 c -1.867,-0.2075 -2.634,0.818 -2.948,1.6297 -1.458,-0.61 -3.046,0.1894 -3.046,0.1894 l 4.808,1.7581 c -0.242,-0.6525 -0.664,-1.2219 -1.217,-1.6414 z"
         fill="#252525"
         id="path35" /><path
         d="m 153.634,20.6633 c 3.999,0 7.241,-3.2649 7.241,-7.2924 0,-4.02749 -3.242,-7.29241 -7.241,-7.29241 -3.999,0 -7.241,3.26492 -7.241,7.29241 0,4.0275 3.242,7.2924 7.241,7.2924 z"
         fill="#ff6583"
         id="path37" /><path
         d="m 176.341,35.8422 h -35.522 c -0.045,6e-4 -0.089,-0.003 -0.133,-0.0106 L 157.487,6.5259 c 0.102,-0.18256 0.251,-0.33443 0.431,-0.44011 0.18,-0.10567 0.384,-0.16135 0.592,-0.16135 0.208,0 0.413,0.05568 0.593,0.16135 0.18,0.10568 0.328,0.25755 0.431,0.44011 l 11.275,19.6657 0.54,0.9409 z"
         fill="#ffc33e"
         id="path39" /><path
         d="m 196.118,35.8425 h -30.723 l 5.953,-8.709 0.428,-0.6276 7.758,-11.3493 c 0.137,-0.1737 0.309,-0.3163 0.505,-0.4186 0.195,-0.1023 0.41,-0.162 0.63,-0.1753 0.22,-0.0132 0.44,0.0204 0.646,0.0985 0.206,0.0782 0.394,0.1992 0.551,0.3552 0.04,0.0443 0.077,0.0911 0.111,0.1402 z"
         fill="#ffc33e"
         id="path41" /><path
         d="m 145.438,103.056 c 3.367,1.694 5.417,3.933 5.417,6.388 0,5.289 -9.503,9.576 -21.225,9.576 -5.096,0 -9.772,-0.811 -13.431,-2.162 3.886,1.957 9.528,3.188 15.808,3.188 11.723,0 21.225,-4.287 21.225,-9.576 0,-2.989 -3.037,-5.658 -7.794,-7.414 z"
         fill="#f1f1f1"
         id="path43" /><path
         d="m 152.928,106.689 c 3.799,1.912 6.112,4.438 6.112,7.208 0,5.968 -10.723,10.806 -23.95,10.806 -5.751,0 -11.027,-0.915 -15.155,-2.44 4.385,2.208 10.75,3.598 17.838,3.598 13.227,0 23.949,-4.838 23.949,-10.806 0,-3.373 -3.427,-6.385 -8.794,-8.366 z"
         fill="#f1f1f1"
         id="path45" /><path
         d="m 142.572,104.656 c 2.372,1.194 3.816,2.771 3.816,4.501 0,3.726 -6.694,6.746 -14.953,6.746 -3.218,0.042 -6.418,-0.473 -9.463,-1.523 2.738,1.379 6.713,2.246 11.138,2.246 8.258,0 14.953,-3.02 14.953,-6.746 0,-2.107 -2.14,-3.987 -5.491,-5.224 z"
         fill="#f1f1f1"
         id="path47" /><path
         d="m 109.242,103.972 c 0,0 0.522,7.673 15.464,7.673 14.942,0 19.404,-7.673 19.404,-7.673 z"
         fill="#252525"
         id="path49" /><path
         d="m 130.451,83.8392 c -2.157,-1.6504 -4.864,-2.3963 -7.555,-2.0815 2.405,0.5839 4.528,2.0021 5.998,4.0058 1.47,2.0036 2.193,4.4646 2.041,6.9512 -0.152,2.4865 -1.169,4.8396 -2.872,6.6464 -1.703,1.8069 -3.984,2.9519 -6.442,3.2339 2.351,0.572 4.826,0.311 7.008,-0.739 2.182,-1.05 3.939,-2.8243 4.975,-5.0251 1.037,-2.2008 1.289,-4.6937 0.714,-7.0597 -0.574,-2.3659 -1.939,-4.4607 -3.867,-5.932 z"
         fill="#252525"
         id="path51" /><path
         d="m 125.555,80.3729 h -1.019 v 24.4231 h 1.019 z"
         fill="#252525"
         id="path53" /><path
         d="m 192.51,62.2266 -0.005,-0.0094 -0.014,-0.5966 3.191,-4.667 -3.187,4.2204 -0.012,0.1262 -0.109,-4.7702 2.757,-4.8386 -2.765,4.0006 0.029,-9.8826 v -0.0329 l -0.001,0.0323 -0.183,7.7889 -2.512,-3.1639 2.504,3.8349 -0.055,4.2668 -2.312,-4.1643 2.304,4.7916 -0.031,2.3725 -0.085,6.5732 -0.006,0.4911 c 0.213,0.0017 0.424,-0.0019 0.633,-0.0107 l -0.145,-6.3136 z"
         fill="#cbcbcb"
         id="path55" /><path
         d="m 177.228,64.2786 -0.006,-0.0094 -0.013,-0.5966 3.191,-4.6669 -3.187,4.2204 -0.012,0.1261 -0.109,-4.7702 2.757,-4.8385 -2.765,4.0005 0.029,-9.8826 v -0.0329 l -0.001,0.0323 -0.183,7.7889 -2.513,-3.1639 2.505,3.8349 -0.055,4.2668 -2.312,-4.1643 2.303,4.7916 -0.03,2.3725 -0.085,6.5731 -0.006,0.4912 c 0.213,0.0016 0.424,-0.0019 0.633,-0.0107 l -0.145,-6.3136 z"
         fill="#cbcbcb"
         id="path57" /><path
         d="m 184.699,57.7804 -0.005,-0.0094 -0.014,-0.5966 3.192,-4.6669 -3.188,4.2204 -0.012,0.1261 -0.109,-4.7702 2.757,-4.8385 -2.765,4.0005 0.029,-9.8826 v -0.0329 l -0.001,0.0324 -0.183,7.7888 -2.512,-3.1638 2.504,3.8348 -0.055,4.2668 -2.312,-4.1643 2.304,4.7916 -0.031,2.3725 -0.084,6.5732 -0.006,0.4911 c 0.212,0.0017 0.423,-0.0019 0.632,-0.0107 l -0.145,-6.3136 z"
         fill="#cbcbcb"
         id="path59" /><path
         d="m 58.484,171.348 c 2.2507,0 4.0752,-1.837 4.0752,-4.104 0,-2.266 -1.8245,-4.104 -4.0752,-4.104 -2.2507,0 -4.0752,1.838 -4.0752,4.104 0,2.267 1.8245,4.104 4.0752,4.104 z"
         fill="#ffc33e"
         id="path61" /></g></g></svg>
