<?xml version="1.0" standalone="no"?>
<!DOCTYPE svg PUBLIC "-//W3C//DTD SVG 20010904//EN"
 "http://www.w3.org/TR/2001/REC-SVG-20010904/DTD/svg10.dtd">
<svg version="1.0" xmlns="http://www.w3.org/2000/svg"
 width="358.000000pt" height="215.000000pt" viewBox="0 0 358.000000 215.000000"
 preserveAspectRatio="xMidYMid meet">

<g transform="translate(0.000000,215.000000) scale(0.100000,-0.100000)"
fill="#000000" stroke="none">
<path d="M2246 1511 c-17 -6 -17 -8 -4 -14 10 -3 19 0 22 9 3 8 4 14 3 13 -1
0 -11 -4 -21 -8z"/>
<path d="M2150 1455 c-7 -9 -8 -15 -2 -15 5 0 12 7 16 15 3 8 4 15 2 15 -2 0
-9 -7 -16 -15z"/>
<path d="M2240 1370 c-13 -8 -12 -10 3 -10 9 0 17 5 17 10 0 12 -1 12 -20 0z"/>
<path d="M2123 1183 c31 -2 83 -2 115 0 31 2 5 3 -58 3 -63 0 -89 -1 -57 -3z"/>
<path d="M1948 1173 c17 -2 47 -2 65 0 17 2 3 4 -33 4 -36 0 -50 -2 -32 -4z"/>
<path d="M2318 1173 c7 -3 16 -2 19 1 4 3 -2 6 -13 5 -11 0 -14 -3 -6 -6z"/>
<path d="M1848 1163 c12 -2 32 -2 45 0 12 2 2 4 -23 4 -25 0 -35 -2 -22 -4z"/>
<path d="M1740 1150 c-17 -6 -9 -7 25 -3 28 3 52 7 54 9 8 7 -54 2 -79 -6z"/>
<path d="M1648 1120 c-74 -40 -88 -97 -37 -155 17 -19 76 -60 131 -91 151 -85
272 -208 304 -308 7 -23 13 -32 13 -21 1 58 -91 185 -186 256 -32 24 -98 66
-146 93 -98 55 -137 94 -137 135 0 32 39 73 90 95 19 8 28 15 20 15 -8 0 -32
-9 -52 -19z"/>
<path d="M1700 824 c-1 -5 -1 -51 -1 -101 l0 -93 -66 0 c-70 0 -77 -9 -31 -43
50 -37 202 -22 243 23 18 20 17 20 -61 20 -71 1 -77 2 -59 15 43 30 55 49 55
85 0 25 -7 43 -22 56 -41 35 -58 47 -58 38z m36 -41 c20 -26 17 -77 -6 -104
l-19 -24 -1 73 c0 75 4 84 26 55z"/>
<path d="M943 575 c0 -27 2 -38 4 -22 2 15 2 37 0 50 -2 12 -4 0 -4 -28z"/>
<path d="M855 501 c-16 -4 31 -5 105 -3 174 4 199 10 45 10 -66 0 -133 -3
-150 -7z"/>
<path d="M2044 481 c-7 -18 -27 -37 -50 -50 -22 -11 -34 -20 -29 -21 33 -1
101 66 93 91 -2 5 -8 -3 -14 -20z"/>
<path d="M1200 485 c97 -17 134 -17 50 1 -36 7 -78 13 -95 12 -16 0 4 -6 45
-13z"/>
<path d="M798 483 c7 -3 16 -2 19 1 4 3 -2 6 -13 5 -11 0 -14 -3 -6 -6z"/>
<path d="M719 457 c-53 -28 -89 -78 -88 -121 1 -30 2 -29 9 7 8 45 48 89 104
116 23 11 36 20 30 21 -6 0 -31 -10 -55 -23z"/>
<path d="M1328 463 c6 -2 18 -2 25 0 6 3 1 5 -13 5 -14 0 -19 -2 -12 -5z"/>
<path d="M1420 444 c30 -7 75 -16 100 -18 25 -3 7 3 -40 14 -96 21 -145 25
-60 4z"/>
<path d="M1583 413 c9 -2 23 -2 30 0 6 3 -1 5 -18 5 -16 0 -22 -2 -12 -5z"/>
<path d="M1670 398 c57 -8 227 -8 258 0 12 4 -51 7 -140 7 -95 0 -144 -3 -118
-7z"/>
<path d="M640 291 c0 -24 76 -93 134 -121 58 -28 253 -86 262 -77 2 2 -42 16
-98 30 -136 35 -223 80 -265 135 -18 24 -33 39 -33 33z"/>
</g>
</svg>
